# xmcd
#
# Track frame offsets:
#	150
#	20037
#	47630
#	64955
#	90908
#	113303
#	135949
#	152271
#	170677
#	189818
#	211580
#	248460
#
# Disc length: 3451 seconds
#
# Revision: 0
# Processed by: cddbd v1.5.1PL0 Copyright (c) Steve Scherf et al.
# Submitted via: EasyCDDAExtractor 7.5.0.1
#
DISCID=810d790c
DTITLE=Uncle Sam
DYEAR=1997
DGENRE=R&B
TTITLE0=Can You Feel It
TTITLE1=You Make Me Feel Like
TTITLE2=Throw Your Hands In The Air
TTITLE3=Leave Well Enough Alone
TTITLE4=Without Lovin' You
TTITLE5=Someone Like You
TTITLE6=Tender Love
TTITLE7=Think About Me
TTITLE8=Baby You Are
TTITLE9=Stop Foolin' Around
TTITLE10=I Don't Ever Want To See You Again
TTITLE11=Data Track
EXTD=
EXTT0=
EXTT1=
EXTT2=
EXTT3=
EXTT4=
EXTT5=
EXTT6=
EXTT7=
EXTT8=
EXTT9=
EXTT10=
EXTT11=
PLAYORDER=
